<svg width="64" height="64" viewBox="0 0 64 64" fill="none" xmlns="http://www.w3.org/2000/svg">
  <rect width="64" height="64" rx="16" fill="#0b0914"/>
  <path
    d="M4.08712 14.7154L29.2874 3.333C30.1508 2.943 31.1362 2.943 31.9996 3.333L57.1998 14.7154C58.487 15.2966 59.313 16.5694 59.313 17.9794V40.6874C59.313 42.0974 58.487 43.3702 57.1998 43.9514L31.9996 55.3338C31.1362 55.7238 30.1508 55.7238 29.2874 55.3338L4.08712 43.9514C2.79992 43.3702 1.97392 42.0974 1.97392 40.6874V17.9794C1.97392 16.5694 2.79992 15.2966 4.08712 14.7154Z"
    fill="#7b39fc"
  />
  <path
    d="M10.0871 18.7154L29.2874 10.333C30.1508 9.943 31.1362 9.943 31.9996 10.333L51.1998 18.7154C52.487 19.2966 53.313 20.5694 53.313 21.9794V36.6874C53.313 38.0974 52.487 39.3702 51.1998 39.9514L31.9996 48.3338C31.1362 48.7238 30.1508 48.7238 29.2874 48.3338L10.0871 39.9514C8.79992 39.3702 7.97392 38.0974 7.97392 36.6874V21.9794C7.97392 20.5694 8.79992 19.2966 10.0871 18.7154Z"
    fill="#ffffff"
  />
</svg>