<svg width="32" height="32" viewBox="0 0 32 32" fill="none" xmlns="http://www.w3.org/2000/svg">
  <rect width="32" height="32" rx="8" fill="#0b0914"/>
  <path
    d="M2.54356 7.85771L15.1437 2.1665C15.5754 1.9715 16.0681 1.9715 16.4998 2.1665L29.0999 7.85771C29.7435 8.14831 30.1565 8.78471 30.1565 9.48971V20.8437C30.1565 21.5487 29.7435 22.1851 29.0999 22.4757L16.4998 28.1669C16.0681 28.3619 15.5754 28.3619 15.1437 28.1669L2.54356 22.4757C1.89996 22.1851 1.48696 21.5487 1.48696 20.8437V9.48971C1.48696 8.78471 1.89996 8.14831 2.54356 7.85771Z"
    fill="#7b39fc"
  />
  <path
    d="M5.54356 9.85771L15.1437 5.1665C15.5754 4.9715 16.0681 4.9715 16.4998 5.1665L26.0999 9.85771C26.7435 10.1483 27.1565 10.7847 27.1565 11.4897V19.8437C27.1565 20.5487 26.7435 21.1851 26.0999 21.4757L16.4998 26.1669C16.0681 26.3619 15.5754 26.3619 15.1437 26.1669L5.54356 21.4757C4.89996 21.1851 4.48696 20.5487 4.48696 19.8437V11.4897C4.48696 10.7847 4.89996 10.1483 5.54356 9.85771Z"
    fill="#ffffff"
    fill-opacity="0.9"
  />
</svg>